# xmcd
#
# Track frame offsets:
#       150
#       16051
#       31413
#       46649
#       62541
#       79404
#       94629
#       112369
#       128391
#       143118
#       159972
#       178441
#       193565
#       209032
#       224394
#       241710
#       260024
#       274012
#       291357
#       303506
#       331718
#
# Disc length: 4613 seconds
#
# Revision: 1
# Processed by: cddbd v1.5.2PL0 Copyright (c) Steve Scherf et al.
# Submitted via: FreeDbEdit v0.1
#
DISCID=2f120315
DTITLE=Britney Spears - Greatest Hits: My Perogative
DYEAR=2000
DGENRE=Pop
TTITLE0=My Prerogative
TTITLE1=Toxic
TTITLE2=I'm a Slave 4 U
TTITLE3=Oops! ... I Did It Again
TTITLE4=Me Against the Music
TTITLE5=Stronger
TTITLE6=Everytime
TTITLE7=Baby One More Time
TTITLE8=You Drive Me Crazy
TTITLE9=Boys
TTITLE10=Sometimes
TTITLE11=Overprotected
TTITLE12=Lucky
TTITLE13=Outrageous
TTITLE14=Don't Let Me Be the Last to Know
TTITLE15=Born to Make You Happy
TTITLE16=I Love to Rock'n Roll
TTITLE17=I'm Not a Girl Not Yet a Woman
TTITLE18=I've Just Begun
TTITLE19=Do Somethin'
TTITLE20=I'm So Curious
EXTD=
EXTT0=
EXTT1=
EXTT2=
EXTT3=
EXTT4=
EXTT5=
EXTT6=
EXTT7=
EXTT8=
EXTT9=
EXTT10=
EXTT11=
EXTT12=
EXTT13=
EXTT14=
EXTT15=
EXTT16=
EXTT17=
EXTT18=
EXTT19=
EXTT20=
PLAYORDER=
